<svg width="60" height="60" viewBox="0 0 60 60" fill="none" xmlns="http://www.w3.org/2000/svg">
<path fill-rule="evenodd" clip-rule="evenodd" d="M1.34906 29.0381C8.30874 20.7073 18.6522 13.5 30.0002 13.5C41.3483 13.5 51.6917 20.7073 58.6514 29.0381L59.4548 29.9998L58.6514 30.9615C51.6918 39.2921 41.3482 46.5 30.0002 46.5C18.6523 46.5 8.30861 39.2921 1.34906 30.9615L0.545654 29.9998L1.34906 29.0381ZM4.47538 29.9998C11.0978 37.536 20.3104 43.5 30.0002 43.5C39.6901 43.5 48.9027 37.536 55.5251 29.9998C48.9026 22.4635 39.6902 16.5 30.0002 16.5C20.3102 16.5 11.0978 22.4635 4.47538 29.9998ZM18.5002 30C18.5002 23.6487 23.6489 18.5 30.0002 18.5C36.3515 18.5 41.5002 23.6487 41.5002 30C41.5002 36.3513 36.3515 41.5 30.0002 41.5C23.6489 41.5 18.5002 36.3513 18.5002 30ZM30.0002 21.5C25.3058 21.5 21.5002 25.3056 21.5002 30C21.5002 34.6944 25.3058 38.5 30.0002 38.5C34.6946 38.5 38.5002 34.6944 38.5002 30C38.5002 25.3056 34.6946 21.5 30.0002 21.5ZM30.0004 27.75C28.7578 27.75 27.7504 28.7574 27.7504 30C27.7504 31.2426 28.7578 32.25 30.0004 32.25C31.2431 32.25 32.2504 31.2426 32.2504 30C32.2504 28.7574 31.2431 27.75 30.0004 27.75ZM24.7504 30C24.7504 27.1005 27.1009 24.75 30.0004 24.75C32.8999 24.75 35.2504 27.1005 35.2504 30C35.2504 32.8995 32.8999 35.25 30.0004 35.25C27.1009 35.25 24.7504 32.8995 24.7504 30Z" fill="black"/>
</svg>
